# Blender v2.64 (sub 7) OBJ File: '1.blend'
# www.blender.org
o Cube_Cube.001
v 1.000000 2.175350 1.000000
v 1.000000 2.175350 -1.000000
v -1.000000 2.175350 -1.000000
v -1.000000 2.175350 1.000000
v 1.000000 -1.000000 1.000000
v 1.000000 -1.000000 -1.000000
v -1.000000 -1.000000 -1.000000
v -1.000000 -1.000000 1.000000
vt 0.974225 0.541737
vt 0.642508 0.542755
vt 0.640892 0.016095
vt 0.972610 0.015078
vt 0.972610 0.015077
vn 0.000000 -0.000000 1.000000
vn 1.000000 -0.000000 0.000000
vn 0.000000 0.000000 -1.000000
vn -1.000000 0.000000 0.000000
s off
f 1/1/1 4/2/1 8/3/1
f 1/1/1 8/3/1 5/4/1
f 2/1/2 1/2/2 5/3/2
f 2/1/2 5/3/2 6/5/2
f 3/1/3 2/2/3 6/3/3
f 3/1/3 6/3/3 7/4/3
f 4/1/4 3/2/4 7/3/4
f 4/1/4 7/3/4 8/4/4
